<?xml version="1.0" encoding="UTF-8" standalone="no"?>
<!-- Created with Inkscape (http://www.inkscape.org/) -->

<svg
   xmlns:dc="http://purl.org/dc/elements/1.1/"
   xmlns:cc="http://creativecommons.org/ns#"
   xmlns:rdf="http://www.w3.org/1999/02/22-rdf-syntax-ns#"
   xmlns:svg="http://www.w3.org/2000/svg"
   xmlns="http://www.w3.org/2000/svg"
   xmlns:sodipodi="http://sodipodi.sourceforge.net/DTD/sodipodi-0.dtd"
   xmlns:inkscape="http://www.inkscape.org/namespaces/inkscape"
   version="1.1"
   id="svg2"
   xml:space="preserve"
   width="587.51996"
   height="276.47998"
   viewBox="0 0 587.51996 276.47998"
   sodipodi:docname="main.svg"
   inkscape:version="0.92.4 (5da689c313, 2019-01-14)"><metadata
     id="metadata8"><rdf:RDF><cc:Work
         rdf:about=""><dc:format>image/svg+xml</dc:format><dc:type
           rdf:resource="http://purl.org/dc/dcmitype/StillImage" /><dc:title></dc:title></cc:Work></rdf:RDF></metadata><defs
     id="defs6"><clipPath
       clipPathUnits="userSpaceOnUse"
       id="clipPath20"><path
         d="m 50.88,542.64 h 391.2 v 189.6 H 50.88 Z"
         id="path18"
         inkscape:connector-curvature="0"
         style="clip-rule:evenodd" /></clipPath><clipPath
       clipPathUnits="userSpaceOnUse"
       id="clipPath30"><path
         d="m 50.88,542.64 h 391.2 v 189.6 H 50.88 Z"
         id="path28"
         inkscape:connector-curvature="0"
         style="clip-rule:evenodd" /></clipPath><clipPath
       clipPathUnits="userSpaceOnUse"
       id="clipPath80"><path
         d="M 50.4,530.64 H 491.04 V 738 H 50.4 Z"
         id="path78"
         inkscape:connector-curvature="0"
         style="clip-rule:evenodd" /></clipPath><clipPath
       clipPathUnits="userSpaceOnUse"
       id="clipPath92"><path
         d="M 50.4,530.64 H 491.04 V 738 H 50.4 Z"
         id="path90"
         inkscape:connector-curvature="0"
         style="clip-rule:evenodd" /></clipPath><clipPath
       clipPathUnits="userSpaceOnUse"
       id="clipPath104"><path
         d="M 50.4,530.64 H 491.04 V 738 H 50.4 Z"
         id="path102"
         inkscape:connector-curvature="0"
         style="clip-rule:evenodd" /></clipPath><clipPath
       clipPathUnits="userSpaceOnUse"
       id="clipPath116"><path
         d="M 50.4,705.84 H 491.04 V 738 H 50.4 Z"
         id="path114"
         inkscape:connector-curvature="0"
         style="clip-rule:evenodd" /></clipPath><clipPath
       clipPathUnits="userSpaceOnUse"
       id="clipPath128"><path
         d="M 50.4,530.64 H 491.04 V 738 H 50.4 Z"
         id="path126"
         inkscape:connector-curvature="0"
         style="clip-rule:evenodd" /></clipPath><clipPath
       clipPathUnits="userSpaceOnUse"
       id="clipPath140"><path
         d="M 50.4,530.64 H 491.04 V 738 H 50.4 Z"
         id="path138"
         inkscape:connector-curvature="0"
         style="clip-rule:evenodd" /></clipPath><clipPath
       clipPathUnits="userSpaceOnUse"
       id="clipPath152"><path
         d="M 50.4,530.64 H 491.04 V 738 H 50.4 Z"
         id="path150"
         inkscape:connector-curvature="0"
         style="clip-rule:evenodd" /></clipPath><clipPath
       clipPathUnits="userSpaceOnUse"
       id="clipPath164"><path
         d="M 50.4,530.64 H 491.04 V 738 H 50.4 Z"
         id="path162"
         inkscape:connector-curvature="0"
         style="clip-rule:evenodd" /></clipPath><clipPath
       clipPathUnits="userSpaceOnUse"
       id="clipPath176"><path
         d="M 50.4,530.64 H 491.04 V 738 H 50.4 Z"
         id="path174"
         inkscape:connector-curvature="0"
         style="clip-rule:evenodd" /></clipPath><clipPath
       clipPathUnits="userSpaceOnUse"
       id="clipPath188"><path
         d="M 50.4,530.64 H 491.04 V 738 H 50.4 Z"
         id="path186"
         inkscape:connector-curvature="0"
         style="clip-rule:evenodd" /></clipPath><clipPath
       clipPathUnits="userSpaceOnUse"
       id="clipPath200"><path
         d="M 50.4,530.64 H 491.04 V 738 H 50.4 Z"
         id="path198"
         inkscape:connector-curvature="0"
         style="clip-rule:evenodd" /></clipPath><clipPath
       clipPathUnits="userSpaceOnUse"
       id="clipPath212"><path
         d="M 50.4,530.64 H 491.04 V 738 H 50.4 Z"
         id="path210"
         inkscape:connector-curvature="0"
         style="clip-rule:evenodd" /></clipPath><clipPath
       clipPathUnits="userSpaceOnUse"
       id="clipPath224"><path
         d="M 50.4,530.64 H 491.04 V 738 H 50.4 Z"
         id="path222"
         inkscape:connector-curvature="0"
         style="clip-rule:evenodd" /></clipPath><clipPath
       clipPathUnits="userSpaceOnUse"
       id="clipPath236"><path
         d="M 50.4,530.64 H 491.04 V 738 H 50.4 Z"
         id="path234"
         inkscape:connector-curvature="0"
         style="clip-rule:evenodd" /></clipPath><clipPath
       clipPathUnits="userSpaceOnUse"
       id="clipPath248"><path
         d="M 50.4,530.64 H 491.04 V 738 H 50.4 Z"
         id="path246"
         inkscape:connector-curvature="0"
         style="clip-rule:evenodd" /></clipPath><clipPath
       clipPathUnits="userSpaceOnUse"
       id="clipPath260"><path
         d="M 50.4,530.64 H 491.04 V 738 H 50.4 Z"
         id="path258"
         inkscape:connector-curvature="0"
         style="clip-rule:evenodd" /></clipPath><clipPath
       clipPathUnits="userSpaceOnUse"
       id="clipPath272"><path
         d="M 50.4,530.64 H 491.04 V 738 H 50.4 Z"
         id="path270"
         inkscape:connector-curvature="0"
         style="clip-rule:evenodd" /></clipPath><clipPath
       clipPathUnits="userSpaceOnUse"
       id="clipPath284"><path
         d="M 50.4,530.64 H 491.04 V 738 H 50.4 Z"
         id="path282"
         inkscape:connector-curvature="0"
         style="clip-rule:evenodd" /></clipPath><clipPath
       clipPathUnits="userSpaceOnUse"
       id="clipPath296"><path
         d="M 50.4,530.64 H 491.04 V 738 H 50.4 Z"
         id="path294"
         inkscape:connector-curvature="0"
         style="clip-rule:evenodd" /></clipPath><clipPath
       clipPathUnits="userSpaceOnUse"
       id="clipPath308"><path
         d="M 50.4,530.64 H 491.04 V 738 H 50.4 Z"
         id="path306"
         inkscape:connector-curvature="0"
         style="clip-rule:evenodd" /></clipPath><clipPath
       clipPathUnits="userSpaceOnUse"
       id="clipPath320"><path
         d="M 50.4,530.64 H 491.04 V 738 H 50.4 Z"
         id="path318"
         inkscape:connector-curvature="0"
         style="clip-rule:evenodd" /></clipPath><clipPath
       clipPathUnits="userSpaceOnUse"
       id="clipPath332"><path
         d="M 50.4,530.64 H 491.04 V 738 H 50.4 Z"
         id="path330"
         inkscape:connector-curvature="0"
         style="clip-rule:evenodd" /></clipPath></defs><sodipodi:namedview
     pagecolor="#ffffff"
     bordercolor="#666666"
     borderopacity="1"
     objecttolerance="10"
     gridtolerance="10"
     guidetolerance="10"
     inkscape:pageopacity="0"
     inkscape:pageshadow="2"
     inkscape:window-width="1920"
     inkscape:window-height="1217"
     id="namedview4"
     showgrid="false"
     inkscape:pagecheckerboard="true"
     inkscape:zoom="1"
     inkscape:cx="340.8"
     inkscape:cy="-179.51998"
     inkscape:window-x="-8"
     inkscape:window-y="-8"
     inkscape:window-maximized="1"
     inkscape:current-layer="g10" /><g
     id="g10"
     inkscape:groupmode="layer"
     inkscape:label="main"
     transform="matrix(1.3333333,0,0,-1.3333333,-67.199998,983.99998)"><path
       d="M 50.4,530.64 H 491.04 V 738 H 50.4 Z"
       style="fill:#ffffff;fill-opacity:1;fill-rule:evenodd;stroke:none"
       id="path12"
       inkscape:connector-curvature="0" /><g
       id="g14"><g
         id="g16"
         clip-path="url(#clipPath20)"><path
           d="m 148.52,621.6 v -78.98 m 0,78.98 v 79.04"
           style="fill:none;stroke:#7f7f7f;stroke-width:1;stroke-linecap:butt;stroke-linejoin:round;stroke-miterlimit:10;stroke-dasharray:none;stroke-opacity:1"
           id="path22"
           inkscape:connector-curvature="0" /></g></g><g
       id="g24"><g
         id="g26"
         clip-path="url(#clipPath30)"><path
           d="m 343.81,621.6 v -78.98 m 0,78.98 v 79.04"
           style="fill:none;stroke:#7f7f7f;stroke-width:1;stroke-linecap:butt;stroke-linejoin:round;stroke-miterlimit:10;stroke-dasharray:none;stroke-opacity:1"
           id="path32"
           inkscape:connector-curvature="0" /></g></g><path
       d="M 148.52,640.59 343.81,590.34"
       style="fill:none;stroke:#c19600;stroke-width:2;stroke-linecap:round;stroke-linejoin:round;stroke-miterlimit:10;stroke-dasharray:none;stroke-opacity:1"
       id="path34"
       inkscape:connector-curvature="0" /><path
       d="m 152.04,640.56 c 0,-1.92 -1.56,-3.48 -3.48,-3.48 -1.92,0 -3.48,1.56 -3.48,3.48 0,1.92 1.56,3.48 3.48,3.48 1.92,0 3.48,-1.56 3.48,-3.48 z"
       style="fill:#c19600;fill-opacity:1;fill-rule:nonzero;stroke:none"
       id="path36"
       inkscape:connector-curvature="0" /><path
       d="m 152.04,640.56 c 0,-1.92 -1.56,-3.48 -3.48,-3.48 -1.92,0 -3.48,1.56 -3.48,3.48 0,1.92 1.56,3.48 3.48,3.48 1.92,0 3.48,-1.56 3.48,-3.48 z"
       style="fill:none;stroke:#f2f2f2;stroke-width:0.72000003;stroke-linecap:butt;stroke-linejoin:round;stroke-miterlimit:10;stroke-dasharray:none;stroke-opacity:1"
       id="path38"
       inkscape:connector-curvature="0" /><path
       d="m 347.28,590.28 c 0,-1.92 -1.56,-3.48 -3.48,-3.48 -1.92,0 -3.48,1.56 -3.48,3.48 0,1.92 1.56,3.48 3.48,3.48 1.92,0 3.48,-1.56 3.48,-3.48 z"
       style="fill:#c19600;fill-opacity:1;fill-rule:nonzero;stroke:none"
       id="path40"
       inkscape:connector-curvature="0" /><path
       d="m 347.28,590.28 c 0,-1.92 -1.56,-3.48 -3.48,-3.48 -1.92,0 -3.48,1.56 -3.48,3.48 0,1.92 1.56,3.48 3.48,3.48 1.92,0 3.48,-1.56 3.48,-3.48 z"
       style="fill:none;stroke:#f2f2f2;stroke-width:0.72000003;stroke-linecap:butt;stroke-linejoin:round;stroke-miterlimit:10;stroke-dasharray:none;stroke-opacity:1"
       id="path42"
       inkscape:connector-curvature="0" /><path
       d="M 148.52,642.8 343.81,580.86"
       style="fill:none;stroke:#816400;stroke-width:2;stroke-linecap:round;stroke-linejoin:round;stroke-miterlimit:10;stroke-dasharray:none;stroke-opacity:1"
       id="path44"
       inkscape:connector-curvature="0" /><path
       d="m 152.04,642.84 c 0,-1.92 -1.56,-3.48 -3.48,-3.48 -1.92,0 -3.48,1.56 -3.48,3.48 0,1.92 1.56,3.48 3.48,3.48 1.92,0 3.48,-1.56 3.48,-3.48 z"
       style="fill:#816400;fill-opacity:1;fill-rule:nonzero;stroke:none"
       id="path46"
       inkscape:connector-curvature="0" /><path
       d="m 152.04,642.84 c 0,-1.92 -1.56,-3.48 -3.48,-3.48 -1.92,0 -3.48,1.56 -3.48,3.48 0,1.92 1.56,3.48 3.48,3.48 1.92,0 3.48,-1.56 3.48,-3.48 z"
       style="fill:none;stroke:#f2f2f2;stroke-width:0.47999999;stroke-linecap:butt;stroke-linejoin:round;stroke-miterlimit:10;stroke-dasharray:none;stroke-opacity:1"
       id="path48"
       inkscape:connector-curvature="0" /><path
       d="m 347.28,580.8 c 0,-1.92 -1.56,-3.48 -3.48,-3.48 -1.92,0 -3.48,1.56 -3.48,3.48 0,1.92 1.56,3.48 3.48,3.48 1.92,0 3.48,-1.56 3.48,-3.48 z"
       style="fill:#816400;fill-opacity:1;fill-rule:nonzero;stroke:none"
       id="path50"
       inkscape:connector-curvature="0" /><path
       d="m 347.28,580.8 c 0,-1.92 -1.56,-3.48 -3.48,-3.48 -1.92,0 -3.48,1.56 -3.48,3.48 0,1.92 1.56,3.48 3.48,3.48 1.92,0 3.48,-1.56 3.48,-3.48 z"
       style="fill:none;stroke:#f2f2f2;stroke-width:0.47999999;stroke-linecap:butt;stroke-linejoin:round;stroke-miterlimit:10;stroke-dasharray:none;stroke-opacity:1"
       id="path52"
       inkscape:connector-curvature="0" /><path
       d="M 148.52,646.28 343.81,625.1"
       style="fill:none;stroke:#7f7f7f;stroke-width:2;stroke-linecap:round;stroke-linejoin:round;stroke-miterlimit:10;stroke-dasharray:none;stroke-opacity:1"
       id="path54"
       inkscape:connector-curvature="0" /><path
       d="m 152.04,646.32 c 0,-1.92 -1.56,-3.48 -3.48,-3.48 -1.92,0 -3.48,1.56 -3.48,3.48 0,1.92 1.56,3.48 3.48,3.48 1.92,0 3.48,-1.56 3.48,-3.48 z"
       style="fill:#7f7f7f;fill-opacity:1;fill-rule:nonzero;stroke:none"
       id="path56"
       inkscape:connector-curvature="0" /><path
       d="m 152.04,646.32 c 0,-1.92 -1.56,-3.48 -3.48,-3.48 -1.92,0 -3.48,1.56 -3.48,3.48 0,1.92 1.56,3.48 3.48,3.48 1.92,0 3.48,-1.56 3.48,-3.48 z"
       style="fill:none;stroke:#f2f2f2;stroke-width:0.47999999;stroke-linecap:butt;stroke-linejoin:round;stroke-miterlimit:10;stroke-dasharray:none;stroke-opacity:1"
       id="path58"
       inkscape:connector-curvature="0" /><path
       d="m 347.28,625.2 c 0,-1.92 -1.56,-3.48 -3.48,-3.48 -1.92,0 -3.48,1.56 -3.48,3.48 0,1.92 1.56,3.48 3.48,3.48 1.92,0 3.48,-1.56 3.48,-3.48 z"
       style="fill:#7f7f7f;fill-opacity:1;fill-rule:nonzero;stroke:none"
       id="path60"
       inkscape:connector-curvature="0" /><path
       d="m 347.28,625.2 c 0,-1.92 -1.56,-3.48 -3.48,-3.48 -1.92,0 -3.48,1.56 -3.48,3.48 0,1.92 1.56,3.48 3.48,3.48 1.92,0 3.48,-1.56 3.48,-3.48 z"
       style="fill:none;stroke:#f2f2f2;stroke-width:0.5;stroke-linecap:butt;stroke-linejoin:round;stroke-miterlimit:10;stroke-dasharray:none;stroke-opacity:1"
       id="path62"
       inkscape:connector-curvature="0" /><path
       d="M 148.52,556.84 343.81,690.21"
       style="fill:none;stroke:#003953;stroke-width:3;stroke-linecap:round;stroke-linejoin:round;stroke-miterlimit:10;stroke-dasharray:none;stroke-opacity:1"
       id="path64"
       inkscape:connector-curvature="0" /><path
       d="m 152.64,556.74 c 0,-2.22 -1.8,-4.02 -4.02,-4.02 -2.22,0 -4.02,1.8 -4.02,4.02 0,2.22 1.8,4.02 4.02,4.02 2.22,0 4.02,-1.8 4.02,-4.02 z"
       style="fill:#003953;fill-opacity:1;fill-rule:nonzero;stroke:none"
       id="path66"
       inkscape:connector-curvature="0" /><path
       d="m 152.64,556.74 c 0,-2.22 -1.8,-4.02 -4.02,-4.02 -2.22,0 -4.02,1.8 -4.02,4.02 0,2.22 1.8,4.02 4.02,4.02 2.22,0 4.02,-1.8 4.02,-4.02 z"
       style="fill:none;stroke:#f2f2f2;stroke-width:0.47999999;stroke-linecap:butt;stroke-linejoin:round;stroke-miterlimit:10;stroke-dasharray:none;stroke-opacity:1"
       id="path68"
       inkscape:connector-curvature="0" /><path
       d="m 347.88,690.18 c 0,-2.22 -1.8,-4.02 -4.02,-4.02 -2.22,0 -4.02,1.8 -4.02,4.02 0,2.22 1.8,4.02 4.02,4.02 2.22,0 4.02,-1.8 4.02,-4.02 z"
       style="fill:#003953;fill-opacity:1;fill-rule:nonzero;stroke:none"
       id="path70"
       inkscape:connector-curvature="0" /><path
       d="m 347.88,690.18 c 0,-2.22 -1.8,-4.02 -4.02,-4.02 -2.22,0 -4.02,1.8 -4.02,4.02 0,2.22 1.8,4.02 4.02,4.02 2.22,0 4.02,-1.8 4.02,-4.02 z"
       style="fill:none;stroke:#f2f2f2;stroke-width:0.5;stroke-linecap:butt;stroke-linejoin:round;stroke-miterlimit:10;stroke-dasharray:none;stroke-opacity:1"
       id="path72"
       inkscape:connector-curvature="0" /><g
       id="g74"><g
         id="g76"
         clip-path="url(#clipPath80)"><text
           transform="matrix(1,0,0,-1,137.95,534.24)"
           style="font-variant:normal;font-weight:normal;font-size:9.96000004px;font-family:Arial;-inkscape-font-specification:ArialMT;writing-mode:lr-tb;fill:#000000;fill-opacity:1;fill-rule:nonzero;stroke:none"
           id="text84"><tspan
             x="0 5.5199599 11.03992 16.559879"
             y="0"
             sodipodi:role="line"
             id="tspan82">2015</tspan></text>
</g></g><g
       id="g86"><g
         id="g88"
         clip-path="url(#clipPath92)"><text
           transform="matrix(1,0,0,-1,331.22,534.24)"
           style="font-variant:normal;font-weight:normal;font-size:9.96000004px;font-family:Arial;-inkscape-font-specification:ArialMT;writing-mode:lr-tb;fill:#000000;fill-opacity:1;fill-rule:nonzero;stroke:none"
           id="text96"><tspan
             x="0 5.5199599 11.03992 16.559879"
             y="0"
             sodipodi:role="line"
             id="tspan94">2020</tspan></text>
</g></g><g
       id="g98"><g
         id="g100"
         clip-path="url(#clipPath104)"><text
           transform="matrix(1,0,0,-1,57.6,725.04)"
           style="font-variant:normal;font-weight:bold;font-size:9.96000004px;font-family:Arial;-inkscape-font-specification:Arial-BoldMT;writing-mode:lr-tb;fill:#000000;fill-opacity:1;fill-rule:nonzero;stroke:none"
           id="text108"><tspan
             x="0 7.21104 13.3464 22.240681 27.77844 33.3162 36.194641 44.132759 46.901642 50.238239 56.3736 59.013 67.90728 74.042641 79.580399 82.93692 85.705803 91.8312 95.675758 98.544243 104.082 106.85088 109.61976 112.38864 115.15752 121.24308 127.40832 133.54369 139.67905 143.52361 146.39207 152.52744 158.6628 161.43169 167.55708 173.09483 175.86372 181.99908 185.34564 188.11452 193.65228 196.52077 202.05852 204.82739 210.96275 217.09811 219.867 225.40475 228.27324 231.6198 237.048 243.18336 248.72112 251.59956 254.94612 260.48389 266.02164 271.55939 277.09717 279.99551 285.53329 291.66864 297.80399 300.67249 306.21024 311.74799 317.28577 322.82352"
             y="0"
             sodipodi:role="line"
             id="tspan106">Homes with most or all indoor bulbs of a single type (2015 and 2020)</tspan></text>
</g></g><g
       id="g110"><g
         id="g112"
         clip-path="url(#clipPath116)"><text
           transform="matrix(1,0,0,-1,57.6,713.5)"
           style="font-variant:normal;font-weight:normal;font-size:9.96000004px;font-family:Arial;-inkscape-font-specification:ArialMT;writing-mode:lr-tb;fill:#000000;fill-opacity:1;fill-rule:nonzero;stroke:none"
           id="text120"><tspan
             x="0 5.5377598 11.07552 14.442 19.49172 25.02948 30.56724 33.336121 38.873878 44.41164 49.949402 52.957321 58.495079 61.37352 64.142403 69.680161 75.217918 80.755676 85.815361 91.353119 96.890877 102.42864 104.60988 110.14764"
             y="0"
             sodipodi:role="line"
             id="tspan118">percentage of households</tspan></text>
</g></g><g
       id="g122"><g
         id="g124"
         clip-path="url(#clipPath128)"><text
           transform="matrix(1,0,0,-1,353.98,698.02)"
           style="font-variant:normal;font-weight:bold;font-size:14.03999996px;font-family:Arial;-inkscape-font-specification:Arial-BoldMT;writing-mode:lr-tb;fill:#003953;fill-opacity:1;fill-rule:nonzero;stroke:none"
           id="text132"><tspan
             x="0 7.8000002 15.6"
             y="0"
             sodipodi:role="line"
             id="tspan130">47%</tspan></text>
</g></g><g
       id="g134"><g
         id="g136"
         clip-path="url(#clipPath140)"><text
           transform="matrix(1,0,0,-1,353.98,685.66)"
           style="font-variant:normal;font-weight:bold;font-size:9.96000004px;font-family:Arial;-inkscape-font-specification:Arial-BoldMT;writing-mode:lr-tb;fill:#003953;fill-opacity:1;fill-rule:nonzero;stroke:none"
           id="text144"><tspan
             x="0 8.8544397 14.9898 20.527559 23.84424 26.613119 32.031361 35.01936 41.12484 44.969398 47.738281 53.276039 56.005081 58.77396 61.632481 67.737961 74.341438"
             y="0"
             sodipodi:role="line"
             id="tspan142">mostly or all LED</tspan></text>
</g></g><g
       id="g146"><g
         id="g148"
         clip-path="url(#clipPath152)"><text
           transform="matrix(1,0,0,-1,353.98,675.1)"
           style="font-variant:normal;font-weight:normal;font-size:9px;font-family:Arial;-inkscape-font-specification:ArialMT;writing-mode:lr-tb;fill:#003953;fill-opacity:1;fill-rule:nonzero;stroke:none"
           id="text156"><tspan
             x="0 2.997 5.0310001 7.0650001 12.096 17.127001"
             y="0"
             sodipodi:role="line"
             id="tspan154">(light</tspan></text>
</g></g><g
       id="g158"><g
         id="g160"
         clip-path="url(#clipPath164)"><text
           transform="matrix(1,0,0,-1,373.66,675.1)"
           style="font-variant:normal;font-weight:normal;font-size:9px;font-family:Arial;-inkscape-font-specification:ArialMT;writing-mode:lr-tb;fill:#003953;fill-opacity:1;fill-rule:nonzero;stroke:none"
           id="text168"><tspan
             x="0"
             y="0"
             id="tspan166">-</tspan></text>
</g></g><g
       id="g170"><g
         id="g172"
         clip-path="url(#clipPath176)"><text
           transform="matrix(1,0,0,-1,376.66,675.1)"
           style="font-variant:normal;font-weight:normal;font-size:9px;font-family:Arial;-inkscape-font-specification:ArialMT;writing-mode:lr-tb;fill:#003953;fill-opacity:1;fill-rule:nonzero;stroke:none"
           id="text180"><tspan
             x="0 5.0310001 12.582 14.616 17.118 19.646999 21.681 26.604 31.635 33.794998 38.826 40.860001 45.890999 50.922001 55.952999"
             y="0"
             sodipodi:role="line"
             id="tspan178">emitting diode)</tspan></text>
</g></g><g
       id="g182"><g
         id="g184"
         clip-path="url(#clipPath188)"><text
           transform="matrix(1,0,0,-1,129,554.86)"
           style="font-variant:normal;font-weight:bold;font-size:9.96000004px;font-family:Arial;-inkscape-font-specification:Arial-BoldMT;writing-mode:lr-tb;fill:#003953;fill-opacity:1;fill-rule:nonzero;stroke:none"
           id="text192"><tspan
             x="0 5.5199599"
             y="0"
             sodipodi:role="line"
             id="tspan190">4%</tspan></text>
</g></g><g
       id="g194"><g
         id="g196"
         clip-path="url(#clipPath200)"><text
           transform="matrix(1,0,0,-1,351.43,633.1)"
           style="font-variant:normal;font-weight:bold;font-size:11.03999996px;font-family:Arial;-inkscape-font-specification:Arial-BoldMT;writing-mode:lr-tb;fill:#7f7f7f;fill-opacity:1;fill-rule:nonzero;stroke:none"
           id="text204"><tspan
             x="0 6.1200399 12.24008"
             y="0"
             sodipodi:role="line"
             id="tspan202">26%</tspan></text>
</g></g><g
       id="g206"><g
         id="g208"
         clip-path="url(#clipPath212)"><text
           transform="matrix(1,0,0,-1,351.43,622.3)"
           style="font-variant:normal;font-weight:normal;font-size:9px;font-family:Arial;-inkscape-font-specification:ArialMT;writing-mode:lr-tb;fill:#7f7f7f;fill-opacity:1;fill-rule:nonzero;stroke:none"
           id="text216"><tspan
             x="0 5.0310001 10.062 12.465 17.496 20.493 25.524 30.555 35.585999 43.137001 45.171001 50.202 55.233002 60.264 62.765999 64.944 69.974998 75.005997 77.040001 82.070999 84.473999 86.975998 91.431 96.461998"
             y="0"
             sodipodi:role="line"
             id="tspan214">no predominant bulb type</tspan></text>
</g></g><g
       id="g218"><g
         id="g220"
         clip-path="url(#clipPath224)"><text
           transform="matrix(1,0,0,-1,123.48,647.74)"
           style="font-variant:normal;font-weight:bold;font-size:9.96000004px;font-family:Arial;-inkscape-font-specification:Arial-BoldMT;writing-mode:lr-tb;fill:#7f7f7f;fill-opacity:1;fill-rule:nonzero;stroke:none"
           id="text228"><tspan
             x="0 5.5199599 11.03992"
             y="0"
             sodipodi:role="line"
             id="tspan226">33%</tspan></text>
</g></g><g
       id="g230"><g
         id="g232"
         clip-path="url(#clipPath236)"><text
           transform="matrix(1,0,0,-1,123.48,636.22)"
           style="font-variant:normal;font-weight:bold;font-size:9.96000004px;font-family:Arial;-inkscape-font-specification:Arial-BoldMT;writing-mode:lr-tb;fill:#816400;fill-opacity:1;fill-rule:nonzero;stroke:none"
           id="text240"><tspan
             x="0 5.5199599 11.03992"
             y="0"
             sodipodi:role="line"
             id="tspan238">32%</tspan></text>
</g></g><g
       id="g242"><g
         id="g244"
         clip-path="url(#clipPath248)"><text
           transform="matrix(1,0,0,-1,123.48,624.7)"
           style="font-variant:normal;font-weight:bold;font-size:9.96000004px;font-family:Arial;-inkscape-font-specification:Arial-BoldMT;writing-mode:lr-tb;fill:#c19600;fill-opacity:1;fill-rule:nonzero;stroke:none"
           id="text252"><tspan
             x="0 5.5199599 11.03992"
             y="0"
             sodipodi:role="line"
             id="tspan250">31%</tspan></text>
</g></g><g
       id="g254"><g
         id="g256"
         clip-path="url(#clipPath260)"><text
           transform="matrix(1,0,0,-1,351.43,607.42)"
           style="font-variant:normal;font-weight:bold;font-size:11.03999996px;font-family:Arial;-inkscape-font-specification:Arial-BoldMT;writing-mode:lr-tb;fill:#c19600;fill-opacity:1;fill-rule:nonzero;stroke:none"
           id="text264"><tspan
             x="0 6.1200399 12.24008"
             y="0"
             sodipodi:role="line"
             id="tspan262">15%</tspan></text>
</g></g><g
       id="g266"><g
         id="g268"
         clip-path="url(#clipPath272)"><text
           transform="matrix(1,0,0,-1,351.43,596.62)"
           style="font-variant:normal;font-weight:normal;font-size:9px;font-family:Arial;-inkscape-font-specification:ArialMT;writing-mode:lr-tb;fill:#c19600;fill-opacity:1;fill-rule:nonzero;stroke:none"
           id="text276"><tspan
             x="0 7.5510001 12.582 17.136 19.638 21.690001 26.127001 28.403999 33.435001 36.431999 38.933998 43.983002 46.016998"
             y="0"
             sodipodi:role="line"
             id="tspan274">mostly or all</tspan></text>
</g></g><g
       id="g278"><g
         id="g280"
         clip-path="url(#clipPath284)"><text
           transform="matrix(1,0,0,-1,351.43,585.34)"
           style="font-variant:normal;font-weight:bold;font-size:9.96000004px;font-family:Arial;-inkscape-font-specification:Arial-BoldMT;writing-mode:lr-tb;fill:#c19600;fill-opacity:1;fill-rule:nonzero;stroke:none"
           id="text288"><tspan
             x="0 2.7688799 8.8544397 14.3922 19.92996 26.01552 32.150879 37.688641 43.186562 48.724319 54.22224 60.327721 63.674278 66.662277 72.767761 76.61232 79.381203 85.466759 91.004517 93.773399 99.878883 105.98436 111.52212"
             y="0"
             sodipodi:role="line"
             id="tspan286">incandescent or halogen</tspan></text>
</g></g><g
       id="g290"><g
         id="g292"
         clip-path="url(#clipPath296)"><text
           transform="matrix(1,0,0,-1,351.43,572.86)"
           style="font-variant:normal;font-weight:bold;font-size:11.03999996px;font-family:Arial;-inkscape-font-specification:Arial-BoldMT;writing-mode:lr-tb;fill:#816400;fill-opacity:1;fill-rule:nonzero;stroke:none"
           id="text300"><tspan
             x="0 6.1200399 12.24008"
             y="0"
             sodipodi:role="line"
             id="tspan298">12%</tspan></text>
</g></g><g
       id="g302"><g
         id="g304"
         clip-path="url(#clipPath308)"><text
           transform="matrix(1,0,0,-1,351.43,561.1)"
           style="font-variant:normal;font-weight:normal;font-size:9.02400017px;font-family:Arial;-inkscape-font-specification:ArialMT;writing-mode:lr-tb;fill:#816400;fill-opacity:1;fill-rule:nonzero;stroke:none"
           id="text312"><tspan
             x="0 7.5530882 12.570432 17.145599 19.654272 21.693695 26.133505 28.416576 33.433922 36.438911 38.965633 43.982975 46.040447 48.070847"
             y="0"
             sodipodi:role="line"
             id="tspan310">mostly or all </tspan></text>
</g></g><g
       id="g314"><g
         id="g316"
         clip-path="url(#clipPath320)"><text
           transform="matrix(1,0,0,-1,401.95,561.1)"
           style="font-variant:normal;font-weight:bold;font-size:9.98400021px;font-family:Arial;-inkscape-font-specification:Arial-BoldMT;writing-mode:lr-tb;fill:#816400;fill-opacity:1;fill-rule:nonzero;stroke:none"
           id="text324"><tspan
             x="0 7.2084479 13.308672"
             y="0"
             sodipodi:role="line"
             id="tspan322">CFL</tspan></text>
</g></g><g
       id="g326"><g
         id="g328"
         clip-path="url(#clipPath332)"><text
           transform="matrix(1,0,0,-1,351.43,550.51)"
           style="font-variant:normal;font-weight:normal;font-size:9px;font-family:Arial;-inkscape-font-specification:ArialMT;writing-mode:lr-tb;fill:#816400;fill-opacity:1;fill-rule:nonzero;stroke:none"
           id="text336"><tspan
             x="0 2.997 7.5510001 12.582 20.132999 25.164 30.195 34.749001 37.250999 39.429001 41.931 43.983002 49.014 54.044998 57.042 62.073002 66.626999 71.181 76.211998 81.242996 83.745003"
             y="0"
             sodipodi:role="line"
             id="tspan334">(compact fluorescent)</tspan></text>
</g></g><g
       id="g358"
       transform="matrix(0.75000002,0,0,-0.75000002,55.757071,553.49889)"><path
         style="fill:#455560;stroke-width:0.27698913"
         inkscape:connector-curvature="0"
         id="path1537"
         d="m 3.6839501,11.98809 c 0.4154837,-0.470881 0.941763,-0.692473 1.6065369,-0.692473 0.637075,0 1.1633544,0.221592 1.5788384,0.664774 0.415483,0.443183 0.637075,1.02486 0.637075,1.772731 v 0.166193 H 3.0191762 c 0.027699,-0.830967 0.2769891,-1.468042 0.6647739,-1.911225 m 5.1519973,5.678277 c -0.470881,0.470882 -0.830967,0.803269 -1.135655,0.969462 -0.387785,0.221592 -0.858666,0.332387 -1.3849456,0.332387 -0.5816772,0 -1.1356554,-0.193892 -1.6619348,-0.581677 C 4.1271327,17.998754 3.711649,17.472475 3.4346599,16.780002 3.1576707,16.087529 3.0191762,15.31196 3.0191762,14.370197 v -0.110796 h 6.0937612 v -0.166193 c 0,-0.914065 -0.360086,-1.689634 -1.080258,-2.326709 -0.720172,-0.664774 -1.5511391,-0.969462 -2.5206011,-0.969462 -1.1633543,0 -2.1605152,0.443183 -2.9637836,1.301849 -0.8032685,0.858666 -1.1910533,1.938924 -1.1910533,3.213074 0,1.246451 0.4154837,2.299009 1.27415,3.129977 0.8309674,0.830967 1.911225,1.218752 3.2130739,1.218752 0.7201717,0 1.3572471,-0.138495 1.8835261,-0.415484 0.526279,-0.276989 1.02486,-0.74787 1.52344,-1.384945 v 0 z"
         class="st0" /><path
         style="fill:#455560;stroke-width:0.27698913"
         inkscape:connector-curvature="0"
         id="path1539"
         d="m 20.164803,17.694066 c -0.138495,0.304688 -0.387785,0.553978 -0.747871,0.747871 -0.332387,0.193892 -0.664774,0.304688 -0.997161,0.304688 -0.332387,0 -0.637075,-0.138495 -0.886365,-0.443183 -0.24929,-0.304688 -0.387785,-0.664774 -0.387785,-1.080257 0,-0.470882 0.110796,-0.858667 0.360086,-1.135656 0.221591,-0.276989 0.77557,-0.553978 1.606537,-0.858666 0.443183,-0.166194 0.803269,-0.276989 1.02486,-0.387785 v 2.852988 z m 2.769891,0.332387 c -0.110796,0.304688 -0.443183,0.720172 -0.692473,0.720172 -0.193892,0 -0.304688,-0.0831 -0.360086,-0.276989 -0.0554,-0.193893 -0.110795,-0.52628 -0.110795,-1.02486 v -3.57316 c 0,-0.969462 -0.276989,-1.717332 -0.830968,-2.243612 -0.553978,-0.553978 -1.27415,-0.803268 -2.188214,-0.803268 -0.74787,0 -1.412644,0.221591 -1.994321,0.692473 -0.553979,0.443182 -0.914065,1.052558 -1.080258,1.800429 l 0.415484,0.166193 c 0.166193,-0.553978 0.443182,-0.99716 0.830967,-1.301848 0.387785,-0.332387 0.858666,-0.470882 1.384946,-0.470882 0.581677,0 1.024859,0.193892 1.357246,0.553978 0.332387,0.360086 0.498581,0.858667 0.498581,1.468043 v 0.609376 c -0.276989,0.166193 -0.803269,0.332387 -1.578838,0.553978 -1.246451,0.332387 -2.04972,0.720172 -2.465203,1.080258 -0.415484,0.387784 -0.609377,0.858666 -0.609377,1.440343 0,0.609376 0.221592,1.135655 0.692473,1.578838 0.470882,0.443183 1.02486,0.664774 1.689634,0.664774 0.443183,0 0.803268,-0.0831 1.135655,-0.24929 0.332387,-0.166194 0.692473,-0.470882 1.107957,-0.941763 0.24929,0.803268 0.720172,1.191053 1.412644,1.191053 0.470882,0 0.858667,-0.166193 1.135656,-0.470882 0.24929,-0.276989 0.415484,-0.609376 0.470881,-1.052558 z"
         class="st0" /><path
         style="fill:#455560;stroke-width:0.27698913"
         inkscape:connector-curvature="0"
         id="path1541"
         d="m 13.489365,18.746625 c -0.193893,-0.166194 -0.304688,-0.470882 -0.304688,-0.914064 v -7.090922 h -0.52628 v 0.0277 c -0.49858,0.221591 -2.6590946,0.276989 -2.6590946,0.276989 v 0.387785 c 0.6924726,0 1.1356546,0.0831 1.3018486,0.24929 0.166193,0.166194 0.276989,0.498581 0.276989,0.997161 v 5.151998 c 0,0.470881 -0.0831,0.775569 -0.276989,0.941763 -0.193893,0.138494 -0.609376,0.221591 -1.3018486,0.221591 v 0.387785 h 4.5703196 v -0.387785 c -0.526279,0 -0.886365,-0.0831 -1.080257,-0.24929"
         class="st0" /><path
         style="fill:#6cb33f;stroke-width:0.27698913"
         inkscape:connector-curvature="0"
         id="path1543"
         d="m 4.1271327,9.4120907 c 0.027699,-0.0277 0.083097,-0.0831 0.1661935,-0.166193 2.4929022,-2.409806 5.2350942,-4.404127 7.9772868,-5.816772 1.634236,-0.830967 3.213074,-1.412644 4.708815,-1.717333 3.323869,-0.692472 5.401288,0.110796 6.038363,0.637075 0.110795,0.0831 0.166193,0.166194 0.193892,0.249291 -1.938924,-0.193893 -3.960944,-0.0831 -6.066062,0.332387 -3.794751,0.803268 -7.6448996,2.575999 -11.4396503,5.290492 -0.4985804,0.360086 -0.9694619,0.720172 -1.4403435,1.080258 -0.055398,0.0554 -0.1107956,0.0831 -0.1384945,0.110795"
         class="st1" /><path
         style="fill:#ffdd00;stroke-width:0.27698913"
         inkscape:connector-curvature="0"
         id="path1545"
         d="m 3.2961653,9.6059837 c 0.027699,-0.0554 0.083097,-0.166194 0.1938924,-0.276989 0.8309674,-1.191054 2.1051174,-2.908386 3.1022782,-4.09944 2.3544075,-2.769891 4.5980191,-3.600858 5.7059761,-3.82245 0.553978,-0.110795 0.969462,-0.110795 1.135655,-0.110795 0,0 -0.0277,0.0554 -0.110796,0.110795 -1.191053,0.637075 -4.3764276,2.326709 -7.3402112,5.262794 -0.7201717,0.692473 -1.3572467,1.440343 -1.9112249,2.049719 -0.2215913,0.249291 -0.3877848,0.443183 -0.5816772,0.637075 -0.055398,0.138495 -0.1384946,0.193893 -0.1938924,0.249291"
         class="st2" /><path
         style="fill:#0081c6;stroke-width:0.27698913"
         inkscape:connector-curvature="0"
         id="path1547"
         d="m 24.652027,15.921336 c 0,-0.110796 0.0277,-0.276989 0.0831,-0.443183 0.720172,-2.132816 0.664774,-4.127138 -0.166193,-5.7613744 -1.717333,-3.3792669 -5.844471,-4.7365139 -11.079565,-3.6562559 -2.409806,0.49858 -4.9304066,1.468042 -7.4787062,2.908386 -0.1384946,0.0831 -0.2769892,0.166193 -0.4154837,0.24929 -0.1384946,0.0831 -0.2215913,0.138494 -0.3046881,0.166193 0.055398,-0.0554 0.1384946,-0.110795 0.2769891,-0.193892 0.7201718,-0.49858 1.4957413,-0.997161 2.2713113,-1.412645 2.2159126,-1.218752 4.5703196,-2.132816 6.8139316,-2.603697 5.262794,-1.080258 9.528426,0.166193 11.079565,3.268471 0.52628,1.052559 0.720172,2.2436123 0.581677,3.5454613 -0.166193,1.495741 -0.692472,2.79759 -1.661934,3.933246"
         class="st3" /><path
         style="fill:#455560;stroke-width:0.27698913"
         inkscape:connector-curvature="0"
         id="path1549"
         d="m 13.129279,8.8027147 c 0,0.498581 -0.387785,0.8863649 -0.886365,0.8863649 -0.498581,0 -0.886365,-0.3877839 -0.886365,-0.8863649 0,-0.49858 0.415483,-0.886365 0.886365,-0.886365 0.470881,-0.0277 0.886365,0.387785 0.886365,0.886365"
         class="st0" /></g></g><style
     id="style1535"
     type="text/css">
	.st0{fill:#455560;}
	.st1{fill:#6CB33F;}
	.st2{fill:#FFDD00;}
	.st3{fill:#0081C6;}
</style></svg>